HIERARCHY
ROOT Hips
{
	OFFSET 0.000000 0.000000 0.000000 
	CHANNELS 6 Xposition Yposition Zposition Zrotation Yrotation Xrotation
	JOINT LeftUpLeg
	{
		OFFSET 1.363060 -1.794630 0.839290 
		CHANNELS 3 Zrotation Yrotation Xrotation
		JOINT LeftLeg
		{
			OFFSET 2.448110 -6.726130 0.000000 
			CHANNELS 3 Zrotation Yrotation Xrotation
			JOINT LeftFoot
			{
				OFFSET 2.562200 -7.039590 0.000000 
				CHANNELS 3 Zrotation Yrotation Xrotation
				JOINT LeftToeBase
				{
					OFFSET 0.157640 -0.433110 2.322550 
					CHANNELS 3 Zrotation Yrotation Xrotation
					End Site
					{
						OFFSET 0.000000 0.000000 0.000000 
					}
				}
			}
		}
	}
	JOINT RightUpLeg
	{
		OFFSET -1.305520 -1.794630 0.839290 
		CHANNELS 3 Zrotation Yrotation Xrotation
		JOINT RightLeg
		{
			OFFSET -2.542530 -6.985550 0.000000 
			CHANNELS 3 Zrotation Yrotation Xrotation
			JOINT RightFoot
			{
				OFFSET -2.568260 -7.056230 0.000000 
				CHANNELS 3 Zrotation Yrotation Xrotation
				JOINT RightToeBase
				{
					OFFSET -0.164730 -0.452590 2.363150 
					CHANNELS 3 Zrotation Yrotation Xrotation
					End Site
					{
						OFFSET 0.000000 0.000000 0.000000 
					}
				}
			}
		}
	}
	JOINT Spine
	{
		OFFSET 0.028270 2.035590 -0.193380 
		CHANNELS 3 Zrotation Yrotation Xrotation
		JOINT Spine1
		{
			OFFSET 0.056720 2.048850 -0.042750 
			CHANNELS 3 Zrotation Yrotation Xrotation
			JOINT Neck1
			{
				OFFSET -0.054170 1.746240 0.172020 
				CHANNELS 3 Zrotation Yrotation Xrotation
				JOINT Head
				{
					OFFSET 0.104070 1.761360 -0.123970 
					CHANNELS 3 Zrotation Yrotation Xrotation
					End Site
					{
						OFFSET 0.000000 0.000000 0.000000 
					}
				}
			}
			JOINT LeftArm
			{
				OFFSET 3.362410 1.200890 -0.311210 
				CHANNELS 3 Zrotation Yrotation Xrotation
				JOINT LeftForeArm
				{
					OFFSET 4.983000 -0.000000 -0.000000 
					CHANNELS 3 Zrotation Yrotation Xrotation
					JOINT LeftHand
					{
						OFFSET 3.483560 -0.000000 -0.000000 
						CHANNELS 3 Zrotation Yrotation Xrotation
						JOINT LeftHandIndex1
						{
							OFFSET 0.715260 -0.000000 -0.000000 
							CHANNELS 3 Zrotation Yrotation Xrotation
							End Site
							{
								OFFSET 0.000000 0.000000 0.000000 
							}
						}
					}
				}
			}
			JOINT RightArm
			{
				OFFSET -3.136600 1.374050 -0.404650 
				CHANNELS 3 Zrotation Yrotation Xrotation
				JOINT RightForeArm
				{
					OFFSET -5.241900 -0.000000 -0.000000 
					CHANNELS 3 Zrotation Yrotation Xrotation
					JOINT RightHand
					{
						OFFSET -3.444170 -0.000000 -0.000000 
						CHANNELS 3 Zrotation Yrotation Xrotation
						JOINT RightHandIndex1
						{
							OFFSET -0.622530 -0.000000 -0.000000 
							CHANNELS 3 Zrotation Yrotation Xrotation
							End Site
							{
								OFFSET 0.000000 0.000000 0.000000 
							}
						}
					}
				}
			}
		}
	}
}
MOTION
Frames: 10
Frame Time: 0.041667
-3.780107 17.854093 -0.094745 109.123752 -86.217422 -106.473554 -8.293645 1.742278 -13.224896 2.042442 12.717270 32.133466 -5.945271 17.008581 -2.324433 0.842200 -5.853900 -16.361100 2.762797 2.461113 -10.718230 -2.663931 -13.434397 35.960879 4.387437 -15.995908 -13.695062 -0.129000 2.315600 -6.378600 -0.851743 0.773933 -0.757284 -1.002590 0.259094 7.083715 11.259216 -2.515556 3.019921 4.638500 -1.096700 0.647700 -77.104993 3.029963 24.889699 38.497702 -45.133958 -19.801684 0.334528 1.008663 12.559249 -7.125000 0.000000 0.000000 74.509577 -4.813523 21.206009 -39.034111 45.768634 -19.407882 1.559504 0.529410 -9.186597 7.125000 0.000000 0.000000 
-3.781196 17.853766 -0.095072 108.709903 -86.153326 -106.066584 -8.369051 1.722815 -13.202781 2.037603 12.718856 32.136561 -5.876567 16.869620 -2.301368 0.809000 -5.740000 -16.031900 2.680927 2.413181 -10.710753 -2.665821 -13.426133 35.951811 4.340903 -15.863164 -13.677107 -0.121000 2.242100 -6.175100 -0.874796 0.787022 -0.762693 -1.014544 0.263613 7.069776 11.330939 -2.472090 3.148321 4.675100 -1.069200 0.713500 -77.066827 2.970082 24.737852 38.899226 -45.305415 -20.046051 0.367262 0.997610 10.953821 -7.125000 0.000000 0.000000 74.501665 -4.800765 21.140149 -38.990711 45.740919 -19.377863 1.554792 0.543974 -9.039274 7.125000 0.000000 0.000000 
-3.784027 17.852895 -0.094854 108.041407 -86.050602 -105.424429 -8.497585 1.699277 -13.138001 2.024023 12.712719 32.101922 -5.824507 16.769728 -2.255617 0.760200 -5.568100 -15.536400 2.548251 2.314808 -10.700013 -2.680667 -13.426466 35.980797 4.289210 -15.714287 -13.636134 -0.117200 2.206700 -6.077300 -0.905805 0.799753 -0.780132 -1.019763 0.267197 7.012885 11.281230 -2.517623 3.084529 4.644900 -1.098000 0.662200 -77.028998 2.967102 24.579635 39.320515 -45.486127 -20.305137 0.399872 0.981375 9.362794 -7.125000 0.000000 0.000000 74.495445 -4.842535 21.077895 -38.970801 45.728419 -19.365048 1.548387 0.562248 -8.907451 7.125000 0.000000 0.000000 
-3.786097 17.852133 -0.095398 107.401008 -85.965555 -104.805455 -8.606962 1.691597 -13.120716 2.021922 12.715680 32.082649 -5.913006 16.962150 -2.223619 0.799700 -5.707700 -15.938600 2.447034 2.289450 -10.681826 -2.687905 -13.424523 35.990032 4.290938 -15.714817 -13.624534 -0.125200 2.280700 -6.282200 -0.921979 0.796843 -0.811896 -1.000877 0.264342 6.920355 11.255544 -2.537322 2.996795 4.634500 -1.115200 0.594400 -77.052916 2.992784 24.388504 39.704672 -45.646667 -20.537279 0.432243 0.961504 7.911732 -7.125000 0.000000 0.000000 74.487453 -4.955466 21.084242 -39.000224 45.750177 -19.390303 1.547420 0.567951 -8.914298 7.125000 0.000000 0.000000 
-3.787730 17.851479 -0.095507 107.129939 -85.963726 -104.520533 -8.616471 1.688335 -13.145927 2.025888 12.717944 32.075958 -6.007732 17.162291 -2.211241 0.862600 -5.922300 -16.559200 2.449054 2.319494 -10.680241 -2.686733 -13.425152 35.986582 4.337294 -15.842555 -13.635361 -0.141700 2.426300 -6.685400 -0.920522 0.781198 -0.831684 -1.007767 0.256780 6.886658 11.184738 -2.485689 3.118158 4.591000 -1.085500 0.641900 -77.092968 2.951251 24.151281 40.079538 -45.794154 -20.763729 0.467190 0.936328 6.391873 -7.125000 0.000000 0.000000 74.493856 -5.033144 21.086090 -39.017091 45.758381 -19.394324 1.545738 0.557390 -8.814200 7.125000 0.000000 0.000000 
-3.785661 17.851806 -0.096161 107.531660 -86.074907 -104.868200 -8.480628 1.687689 -13.203790 2.030178 12.712713 32.089875 -5.959605 17.053220 -2.233453 0.848800 -5.876100 -16.425400 2.591929 2.461863 -10.680863 -2.672092 -13.429365 35.968950 4.380939 -15.974602 -13.708778 -0.140200 2.413400 -6.649500 -0.905056 0.773045 -0.833278 -1.060010 0.257740 6.903490 11.120901 -2.422830 3.105366 4.542100 -1.054800 0.630100 -77.091392 2.801293 23.920369 40.386357 -45.897462 -20.941347 0.498974 0.908306 4.954367 -7.125000 0.000000 0.000000 74.494728 -4.989556 21.081669 -39.002677 45.743692 -19.373851 1.544982 0.544053 -8.705818 7.125000 0.000000 0.000000 
-3.783701 17.852242 -0.097141 107.646755 -86.142322 -104.961049 -8.400999 1.715560 -13.242415 2.033520 12.711132 32.110515 -5.894099 16.909357 -2.261029 0.822200 -5.785600 -16.163500 2.665280 2.545073 -10.666754 -2.659642 -13.427242 35.950788 4.353028 -15.910411 -13.798306 -0.119600 2.229700 -6.141000 -0.912882 0.793087 -0.843690 -1.134528 0.272902 6.869362 11.109143 -2.406265 3.057651 4.517400 -1.050100 0.596900 -77.027492 2.671704 23.572903 41.239331 -46.220546 -21.464660 0.545606 0.830419 1.981569 -7.125000 0.000000 0.000000 74.531833 -4.980172 21.034343 -39.033832 45.760692 -19.400506 1.546622 0.540514 -8.737978 7.125000 0.000000 0.000000 
-3.788166 17.852242 -0.095943 106.765683 -86.048253 -104.113515 -8.529870 1.738501 -13.212702 2.033240 12.721825 32.126868 -5.880975 16.888483 -2.247285 0.797400 -5.699800 -15.915800 2.531598 2.422769 -10.633846 -2.663910 -13.414512 35.936709 4.304870 -15.770589 -13.772328 -0.113600 2.172800 -5.983400 -0.933636 0.799167 -0.835737 -1.125569 0.270978 6.877738 10.990638 -2.430256 3.124332 4.441500 -1.059600 0.627400 -77.046326 2.727455 23.608130 41.275759 -46.244324 -21.491209 0.541954 0.832030 2.049933 -7.125000 0.000000 0.000000 74.510114 -4.970983 21.017095 -39.065639 45.780395 -19.435287 1.548417 0.548788 -8.769468 7.125000 0.000000 0.000000 
-3.792849 17.851915 -0.094745 105.900665 -85.949911 -103.273892 -8.658642 1.718483 -13.171573 2.028515 12.729358 32.124676 -5.907416 16.947268 -2.267649 0.796900 -5.698000 -15.910700 2.407649 2.332809 -10.598204 -2.669223 -13.405352 35.928746 4.287695 -15.716428 -13.745271 -0.116600 2.201900 -6.063900 -0.915821 0.761482 -0.807544 -1.007340 0.242972 6.957639 10.944374 -2.443986 3.159504 4.426100 -1.063200 0.654800 -77.165621 2.712000 23.558030 41.299162 -46.258714 -21.506932 0.540200 0.835008 2.088610 -7.125000 0.000000 0.000000 74.329208 -4.873306 21.140141 -38.994583 45.738856 -19.388746 1.549760 0.559523 -8.811231 7.125000 0.000000 0.000000 
-3.796442 17.852024 -0.093111 105.312977 -85.974008 -102.664774 -8.653224 1.673266 -13.157162 2.022672 12.725342 32.109567 -5.931096 16.988598 -2.344822 0.816700 -5.766800 -16.109200 2.398507 2.171149 -10.652008 -2.675274 -13.402848 35.931588 4.266240 -15.648923 -13.680744 -0.120400 2.237200 -6.161700 -0.895895 0.715423 -0.791450 -0.986041 0.218655 7.029160 10.914256 -2.446559 3.185180 4.412700 -1.062000 0.675600 -77.181118 2.701811 23.565516 41.333217 -46.275251 -21.529617 0.538080 0.834964 2.009837 -7.125000 0.000000 0.000000 74.281104 -4.861753 21.213540 -39.006762 45.746783 -19.395335 1.550436 0.558183 -8.824019 7.125000 0.000000 0.000000 
